<?xml version="1.0" encoding="utf-8"?>
<!-- Generator: Adobe Illustrator 19.0.0, SVG Export Plug-In . SVG Version: 6.00 Build 0)  -->
<svg version="1.1" xmlns="http://www.w3.org/2000/svg" xmlns:xlink="http://www.w3.org/1999/xlink" x="0px" y="0px"
	 viewBox="0 0 1499 739" style="enable-background:new 0 0 1138.4 569.8;" xml:space="preserve">
<style type="text/css">
	.st0{fill:#FFFFFF;}
	.st1{display:none;fill:#FFFFFF;}
</style>
<g id="psupIzq1">
	<rect x="79.5" y="105.4" class="st0" width="21.3" height="20" />
</g>
<g id="psupIzq2">
	<rect x="184.4" y="105.4" class="st0" width="20.7" height="20"/>
</g>
<g id="psupIzq3">
	<rect x="289" y="105.3" class="st0" width="20.5" height="20.1"/>
</g>
<g id="psupIzq4">
	<rect x="393.2" y="105.1" class="st0" width="20.4" height="20.5"/>
</g>
<g id="psupIzq5">
	<rect x="79.7" y="209.5" class="st0" width="20.8" height="20.1"/>
</g>
<g id="psupIzq6">
	<rect x="184.3" y="209.4" class="st0" width="20.9" height="20.1"/>
</g>
<g id="psupIzq7">
	<rect x="289.3" y="209.4" class="st0" width="19.9" height="20.1"/>
</g>
<g id="psupIzq8">
	<rect x="393.3" y="209.6" class="st0" width="20.2" height="20.1"/>
</g>
<g id="ppas1">
	<rect x="511.9" y="253.3" class="st0" width="19.8" height="20.3"/>
</g>
<g id="ppas2">
	<rect x="609.5" y="253.3" class="st0" width="19.8" height="20.4"/>
</g>
<g id="psupDer1">
	<rect x="727.9" y="104.8" class="st0" width="20.3" height="20.5"/>
</g>
<g id="psupDer2">
	<rect x="832" y="104.8" class="st0" width="20.5" height="20.5"/>
</g>
<g id="psupDer3">
	<rect x="936" y="104.8" class="st0" width="21.2" height="20.5"/>
</g>
<g id="psupDer4">
	<rect x="1041" y="104.8" class="st0" width="20.3" height="20.5"/>
</g>
<g id="psupDer5">
	<rect x="727.9" y="209.3" class="st0" width="20.3" height="20.5"/>
</g>
<g id="psupDer6">
	<rect x="832" y="209.3" class="st0" width="20.5" height="20.5"/>
</g>
<g id="psupDer7">
	<rect x="936.2" y="209.3" class="st1" width="21" height="20.5"/>
</g>
<g id="psupDer8">
	<rect x="1040.9" y="209.3" class="st0" width="20.5" height="20.5"/>
</g>
<g id="pinfDer1">
	<rect x="727.9" y="306.9" class="st0" width="20.3" height="20.2"/>
</g>
<g id="pinfDer2">
	<rect x="831.9" y="306.9" class="st0" width="20.7" height="20.2"/>
</g>
<g id="pinfDer3">
	<rect x="936" y="306.9" class="st0" width="21.2" height="20.2"/>
</g>
<g id="pinfDer4">
	<rect x="1041" y="306.9" class="st0" width="20.2" height="20.2"/>
</g>
<g id="pinfDer5">
	<rect x="727.9" y="411.3" class="st0" width="20.3" height="20.5"/>
</g>
<g id="pinfDer6">
	<rect x="831.9" y="411.3" class="st0" width="20.7" height="20.5"/>
</g>
<g id="pinfDer7">
	<rect x="936.2" y="411.3" class="st0" width="21" height="20.5"/>
</g>
<g id="pinfDer8">
	<rect x="1040.9" y="411.3" class="st0" width="20.3" height="20.5"/>
</g>
<g id="pinfIzq1">
	<rect x="79.7" y="306.3" class="st0" width="20.8" height="20"/>
</g>
<g id="pinfIzq2">
	<rect x="184.3" y="306.3" class="st0" width="20.9" height="20"/>
</g>
<g id="pinfIzq3">
	<rect x="289.3" y="306.3" class="st0" width="19.9" height="20"/>
</g>
<g id="pinfIzq4">
	<rect x="393.3" y="306.3" class="st0" width="20.2" height="20"/>
</g>
<g id="pInfIzq5">
	<rect x="79.7" y="411.3" class="st0" width="20.8" height="21.5"/>
</g>
<g id="pinfIzq6">
	<rect x="184.3" y="411.3" class="st0" width="20.9" height="19.5"/>
</g>
<g id="pinfIzq7">
	<rect x="289.3" y="411.3" class="st0" width="19.9" height="19.5"/>
</g>
<g id="pinfizq8">
	<rect x="394.3" y="411.3" class="st0" width="19.9" height="19.5"/>
</g>
<g id="panta1">
	
		<image style="overflow:visible;" width="1499" height="739" xlink:href="al fin el fondo.png"  transform="matrix(0.75 0 0 0.75 8.2099 8.1409)">
	</image>
</g>
</svg>
